<?xml version="1.0" standalone="no"?><!DOCTYPE svg PUBLIC "-//W3C//DTD SVG 1.1//EN" "http://www.w3.org/Graphics/SVG/1.1/DTD/svg11.dtd"><svg t="1584020635179" class="icon" viewBox="0 0 1024 1024" version="1.1" xmlns="http://www.w3.org/2000/svg" p-id="1247" xmlns:xlink="http://www.w3.org/1999/xlink" width="200" height="200"><defs><style type="text/css"></style></defs><path d="M959.87712 128c0.04096 0.04096 0.08192 0.08192 0.12288 0.12288l0 767.77472c-0.04096 0.04096-0.08192 0.08192-0.12288 0.12288l-895.77472 0c-0.04096-0.04096-0.08192-0.08192-0.12288-0.12288l0-767.77472c0.04096-0.04096 0.08192-0.08192 0.12288-0.12288l895.77472 0zM960 64l-896 0c-35.20512 0-64 28.79488-64 64l0 768c0 35.20512 28.79488 64 64 64l896 0c35.20512 0 64-28.79488 64-64l0-768c0-35.20512-28.79488-64-64-64l0 0z" p-id="1248"></path><path d="M832 288.01024c0 53.02272-42.98752 96.01024-96.01024 96.01024s-96.01024-42.98752-96.01024-96.01024 42.98752-96.01024 96.01024-96.01024 96.01024 42.98752 96.01024 96.01024z" p-id="1249"></path><path d="M896 832l-768 0 0-128 224.01024-384 256 320 64 0 224.01024-192z" p-id="1250"></path></svg>